<svg xmlns="http://www.w3.org/2000/svg" width="86" height="76" viewBox="0 0 86 76">
  <defs><filter id="s" x="-20%" y="-20%" width="140%" height="140%"><feDropShadow dx="0" dy="1.5" stdDeviation="1.2" flood-opacity=".28"/></filter></defs>
  <rect x="2" y="2" width="82" height="70" rx="5" fill="#0877bd" filter="url(#s)"/>
  <circle cx="10" cy="10" r="3" fill="#dbeafe" stroke="#64748b" stroke-width=".7"/>
  <circle cx="76" cy="10" r="3" fill="#dbeafe" stroke="#64748b" stroke-width=".7"/>
  <rect x="21" y="18" width="44" height="38" rx="4" fill="#c7f0ff" stroke="#075985" stroke-width="1.2"/>
  <rect x="25" y="22" width="36" height="30" rx="2" fill="#dff8ff"/>
  <g stroke="#0284c7" stroke-width="2" stroke-linecap="round">
    <path d="M29 27h28M29 33h28M29 39h28M29 45h28"/>
    <path d="M34 24v25M43 24v25M52 24v25" opacity=".65"/>
  </g>
  <circle id="power-led-pad" cx="70" cy="25" r="3" fill="#4c0519" stroke="#fecdd3" stroke-width=".55"/>
  <rect x="12" y="66" width="62" height="6" rx="2" fill="#111827" stroke="#020617" stroke-width=".8"/>
  <circle cx="18" cy="69" r="1.8" fill="#f4c430"/><circle cx="43" cy="69" r="1.8" fill="#f4c430"/><circle cx="68" cy="69" r="1.8" fill="#f4c430"/>
  <text x="43" y="15" text-anchor="middle" font-family="Arial" font-size="8" font-weight="700" fill="#fff">DHT11</text>
  <text x="43" y="63" text-anchor="middle" font-family="Arial" font-size="5" font-weight="700" fill="#dbeafe">VCC DATA GND</text>
</svg>
