<svg xmlns="http://www.w3.org/2000/svg" width="92" height="80" viewBox="0 0 92 80">
  <defs><filter id="s" x="-20%" y="-20%" width="140%" height="140%"><feDropShadow dx="0" dy="1.5" stdDeviation="1.2" flood-opacity=".28"/></filter></defs>
  <rect x="2" y="2" width="88" height="74" rx="5" fill="#13815f" filter="url(#s)"/>
  <circle cx="10" cy="10" r="3" fill="#dbeafe" stroke="#64748b" stroke-width=".7"/>
  <circle cx="82" cy="10" r="3" fill="#dbeafe" stroke="#64748b" stroke-width=".7"/>
  <circle cx="25" cy="40" r="15" fill="#d1d5db" stroke="#64748b" stroke-width="1"/>
  <circle cx="25" cy="40" r="11" fill="#e5e7eb" stroke="#94a3b8" stroke-width=".6"/>
  <text x="25" y="39" text-anchor="middle" font-family="Arial" font-size="5" font-weight="700" fill="#475569">CR2032</text>
  <text x="25" y="45" text-anchor="middle" font-family="Arial" font-size="4" fill="#64748b">3V Li</text>
  <rect x="50" y="25" width="22" height="27" rx="2" fill="#111827" stroke="#020617" stroke-width="1"/>
  <text x="61" y="37" text-anchor="middle" font-family="monospace" font-size="5" font-weight="700" fill="#e5e7eb">DS1302</text>
  <text x="61" y="44" text-anchor="middle" font-family="monospace" font-size="4" fill="#94a3b8">RTC</text>
  <rect x="43" y="25" width="4" height="21" rx="2" fill="#d1d5db" stroke="#64748b" stroke-width=".7"/>
  <text x="43" y="18" text-anchor="middle" font-family="Arial" font-size="8" font-weight="700" fill="#fff">DS1302 RTC</text>
  <circle id="power-led-pad" cx="78" cy="24" r="3" fill="#14532d" stroke="#86efac" stroke-width=".55"/>
  <path d="M46 70V55h15v-3M62 70V53M78 70V52" fill="none" stroke="#86efac" stroke-width="1.1" opacity=".75"/>
  <rect x="8" y="70" width="76" height="6" rx="2" fill="#111827" stroke="#020617" stroke-width=".8"/>
  <g fill="#f4c430"><circle cx="14" cy="73" r="1.6"/><circle cx="30" cy="73" r="1.6"/><circle cx="46" cy="73" r="1.6"/><circle cx="62" cy="73" r="1.6"/><circle cx="78" cy="73" r="1.6"/></g>
</svg>
