<svg xmlns="http://www.w3.org/2000/svg" width="86" height="74" viewBox="0 0 86 74">
  <defs><filter id="s" x="-20%" y="-20%" width="140%" height="140%"><feDropShadow dx="0" dy="1.5" stdDeviation="1.2" flood-opacity=".25"/></filter></defs>
  <rect x="2" y="2" width="82" height="68" rx="5" fill="#111827" filter="url(#s)"/>
  <circle cx="10" cy="10" r="3" fill="#d1d5db" stroke="#64748b" stroke-width=".7"/>
  <circle cx="76" cy="10" r="3" fill="#d1d5db" stroke="#64748b" stroke-width=".7"/>
  <path d="M29 49V29c0-8 28-8 28 0v20z" fill="#050505" stroke="#334155" stroke-width="1.2"/>
  <rect x="31" y="27" width="24" height="7" rx="3.5" fill="#1f2937"/>
  <text x="43" y="43" text-anchor="middle" font-family="monospace" font-size="7" font-weight="800" fill="#f8fafc">LM35</text>
  <text x="43" y="51" text-anchor="middle" font-family="monospace" font-size="4.5" fill="#94a3b8">DZ</text>
  <path d="M34 56v8M43 56v8M52 56v8" stroke="#cbd5e1" stroke-width="2" stroke-linecap="round"/>
  <rect x="12" y="64" width="62" height="6" rx="2" fill="#1f2937" stroke="#020617" stroke-width=".8"/>
  <circle cx="18" cy="67" r="1.8" fill="#f4c430"/><circle cx="43" cy="67" r="1.8" fill="#f4c430"/><circle cx="68" cy="67" r="1.8" fill="#f4c430"/>
  <text x="43" y="16" text-anchor="middle" font-family="Arial" font-size="8" font-weight="700" fill="#fff">LM35DZ</text>
  <text x="43" y="59" text-anchor="middle" font-family="Arial" font-size="5" font-weight="700" fill="#d1d5db">+VS OUT GND</text>
</svg>
