<svg xmlns="http://www.w3.org/2000/svg" width="86" height="68" viewBox="0 0 86 68">
  <defs><filter id="s" x="-20%" y="-20%" width="140%" height="140%"><feDropShadow dx="0" dy="1.5" stdDeviation="1.2" flood-opacity=".25"/></filter></defs>
  <rect x="2" y="2" width="82" height="62" rx="5" fill="#0f6b3d" filter="url(#s)"/>
  <circle cx="10" cy="10" r="3" fill="#dbeafe" stroke="#64748b" stroke-width=".7"/>
  <circle cx="76" cy="10" r="3" fill="#dbeafe" stroke="#64748b" stroke-width=".7"/>
  <rect x="20" y="25" width="46" height="12" rx="6" fill="#d1d5db" stroke="#64748b" stroke-width=".9"/>
  <circle cx="29" cy="31" r="4" fill="#94a3b8"/><circle cx="57" cy="31" r="4" fill="#94a3b8"/>
  <path d="M22 47c5-8 10 8 16 0s10 8 16 0 9 5 12 1" stroke="#fde047" stroke-width="3" fill="none" stroke-linecap="round"/>
  <circle id="activity-led-pad" cx="70" cy="22" r="3" fill="#4c0519" stroke="#fecdd3" stroke-width=".55"/>
  <rect x="12" y="58" width="62" height="6" rx="2" fill="#111827" stroke="#020617" stroke-width=".8"/>
  <circle cx="18" cy="61" r="1.8" fill="#f4c430"/><circle cx="43" cy="61" r="1.8" fill="#f4c430"/><circle cx="68" cy="61" r="1.8" fill="#f4c430"/>
  <text x="43" y="18" text-anchor="middle" font-family="Arial" font-size="8" font-weight="700" fill="#fff">HDX</text>
  <text x="43" y="54" text-anchor="middle" font-family="Arial" font-size="5" font-weight="700" fill="#d1fae5">VIBRATION SWITCH</text>
</svg>
