<svg xmlns="http://www.w3.org/2000/svg" width="86" height="100" viewBox="0 0 86 100">
  <defs><filter id="s" x="-20%" y="-20%" width="140%" height="140%"><feDropShadow dx="0" dy="1.5" stdDeviation="1.2" flood-opacity=".25"/></filter></defs>
  <rect x="2" y="2" width="82" height="96" rx="4" fill="#b91c1c" filter="url(#s)"/>
  <circle cx="10" cy="10" r="3" fill="#fecaca" stroke="#7f1d1d" stroke-width=".7"/>
  <circle cx="76" cy="10" r="3" fill="#fecaca" stroke="#7f1d1d" stroke-width=".7"/>
  <g fill="#d9a441" stroke="#7c2d12" stroke-width=".45">
    <rect x="17" y="22" width="4" height="58" rx="1"/><rect x="25" y="22" width="4" height="58" rx="1"/>
    <rect x="33" y="22" width="4" height="58" rx="1"/><rect x="41" y="22" width="4" height="58" rx="1"/>
    <rect x="49" y="22" width="4" height="58" rx="1"/><rect x="57" y="22" width="4" height="58" rx="1"/>
    <rect x="65" y="22" width="4" height="58" rx="1"/>
  </g>
  <g fill="#7c2d12" opacity=".45"><rect x="21" y="27" width="4" height="49"/><rect x="29" y="27" width="4" height="49"/><rect x="37" y="27" width="4" height="49"/><rect x="45" y="27" width="4" height="49"/><rect x="53" y="27" width="4" height="49"/><rect x="61" y="27" width="4" height="49"/></g>
  <rect x="12" y="88" width="62" height="6" rx="2" fill="#111827" stroke="#020617" stroke-width=".8"/>
  <circle cx="18" cy="91" r="1.8" fill="#f4c430"/><circle cx="43" cy="91" r="1.8" fill="#f4c430"/><circle cx="68" cy="91" r="1.8" fill="#f4c430"/>
  <circle id="power-led-pad" cx="69" cy="17" r="3" fill="#4c0519" stroke="#fecdd3" stroke-width=".55"/>
  <text x="43" y="16" text-anchor="middle" font-family="Arial" font-size="7" font-weight="700" fill="#fff">WATER LEVEL</text>
  <text x="43" y="86" text-anchor="middle" font-family="monospace" font-size="5" font-weight="700" fill="#fff">S  +  -</text>
</svg>
